<svg fill="none" height="32" viewBox="0 0 107 32" width="107" xmlns="http://www.w3.org/2000/svg" xmlns:xlink="http://www.w3.org/1999/xlink"><clipPath id="a"><path d="m0 0h106.24v32h-106.24z"/></clipPath><mask id="b" height="32" maskUnits="userSpaceOnUse" width="107" x="0" y="0"><path d="m15.984 0c8.8444 0 15.9839 7.14667 15.9839 16 0 8.8533-7.1395 16-15.9839 16-8.8445 0-15.984-7.1467-15.984-16 0-8.85333 7.1395-16 15.984-16zm0 4.26667c-6.50019 0-11.72161 5.22666-11.72161 11.73333 0 6.5067 5.22142 11.7333 11.72161 11.7333 6.5001 0 11.7215-5.2266 11.7215-11.7333 0-6.50667-5.2214-11.73333-11.7215-11.73333zm27.1727 2.02666c.2131-.10666.4262.10667.4262.21334v4.58663h8.5248c.1065 0 .3197.2134.3197.32l.6393 2.6667.6394 2.6667.1065.32.1066-.32 1.5984-5.3334c0-.2133.2131-.32.3197-.32h4.2624c.1065 0 .3196.2134.3196.32l1.705 5.6534.1066-.32 1.3852-5.3334c0-.2133.2131-.32.3197-.32h10.8691c.1066 0 .2131.2134.2131.32v14.1867c0 .2133-.2131.32-.3197.32h-5.4345c-.2131 0-.3197-.2133-.3197-.32l-.0007-13.44-4.0486 13.44c0 .1867-.1631.2917-.2753.315l-.0443.005h-4.4755c-.1066 0-.3197-.2133-.3197-.32l-.8525-2.88-.959-3.0933-1.9181 5.9733c0 .2133-.2131.32-.3197.32h-4.4755c-.1066 0-.3197-.2133-.3197-.32l-4.0492-13.44v3.4133c0 .2134-.2132.32-.3197.32h-3.0903v3.6267c0 1.0667.5328 1.4933 1.4919 1.4933.4262 0 .959-.1066 1.4918-.32.1066-.1066.3197 0 .3197.2134v4.2666c-.959.5334-2.3443.8534-3.8361.8534-3.5165 0-5.4346-1.6-5.4346-5.12v-5.0134h-1.3853c-.2131 0-.3196-.2133-.3196-.32v-4.0533c0-.2133.2131-.32.3196-.32h1.3853v-2.88c0-.21333.1066-.32.3197-.32zm54.9848 4.47997c4.6885 0 8.0985 3.52 8.0985 7.5734 0 4.0533-3.41 7.5733-8.2051 7.5733-4.6886 0-8.0985-3.52-8.0985-7.5733 0-4.0534 3.4099-7.5734 8.2051-7.5734zm-16.1971-4.47997c.2131 0 .3197.10667.3197.21334v18.98663c0 .2134-.2132.32-.3197.32h-5.4346c-.2131 0-.3196-.2133-.3196-.32v-18.87997c0-.21333.2131-.32.3196-.32zm7.1395 4.79997c.2131 0 .3197.2134.3197.32v13.9734c0 .2133-.2132.32-.3197.32h-5.4346c-.2131 0-.3196-.2134-.3196-.32v-13.9734c0-.2133.2131-.32.3196-.32zm-77.0427 5.5467c1.8116 0 3.3034 1.4933 3.3034 3.3067 0 1.8133-1.4918 3.3066-3.3034 3.3066-1.8115 0-3.30331-1.4933-3.30331-3.3066 0-1.8134 1.49181-3.3067 3.30331-3.3067zm7.8855 0c1.8115 0 3.3033 1.4933 3.3033 3.3067 0 1.8133-1.4918 3.3066-3.3033 3.3066-1.8116 0-3.3034-1.4933-3.3034-3.3066 0-1.8134 1.4918-3.3067 3.3034-3.3067zm78.2148-.7467c-1.3853 0-2.3444 1.1734-2.3444 2.56 0 1.3867 1.0656 2.56 2.3444 2.56 1.3852 0 2.3445-1.1733 2.3445-2.56 0-1.4933-1.0658-2.6666-2.3445-2.56zm-78.2148-7.14663c1.8115 0 3.3033 1.49333 3.3033 3.30663 0 1.8134-1.4918 3.3067-3.3033 3.3067-1.8116 0-3.3034-1.4933-3.3034-3.3067 0-1.8133 1.4918-3.30663 3.3034-3.30663zm-7.8855 0c1.8116 0 3.3034 1.49333 3.3034 3.30663 0 1.8134-1.4918 3.3067-3.3034 3.3067-1.8115 0-3.30331-1.4933-3.30331-3.3067 0-1.8133 1.49181-3.30663 3.30331-3.30663zm62.8703-2.45334c.1065 0 .2131.10667.3196.21334v3.41333c0 .2133-.2131.32-.3196.32h-5.6477c-.2131 0-.3197-.2133-.3197-.32v-3.30667c0-.21333.2131-.32.3197-.32zm14.2789 0c.2132 0 .3197.10667.3197.21334v3.41333c0 .2133-.2131.32-.3197.32h-5.6476c-.2131 0-.3197-.2133-.3197-.32v-3.30667c0-.21333.2131-.32.3197-.32z" fill="#fff"/></mask><g clip-path="url(#a)"><g mask="url(#b)"><path d="m15.984 0c8.8444 0 15.9839 7.14667 15.9839 16 0 8.8533-7.1395 16-15.9839 16-8.8445 0-15.984-7.1467-15.984-16 0-8.85333 7.1395-16 15.984-16zm0 4.26667c-6.50019 0-11.72161 5.22666-11.72161 11.73333 0 6.5067 5.22142 11.7333 11.72161 11.7333 6.5001 0 11.7215-5.2266 11.7215-11.7333 0-6.50667-5.2214-11.73333-11.7215-11.73333zm27.1727 2.02666c.2131-.10666.4262.10667.4262.21334v4.58663h8.5248c.1065 0 .3197.2134.3197.32l.6393 2.6667.6394 2.6667.1065.32.1066-.32 1.5984-5.3334c0-.2133.2131-.32.3197-.32h4.2624c.1065 0 .3196.2134.3196.32l1.705 5.6534.1066-.32 1.3852-5.3334c0-.2133.2131-.32.3197-.32h10.8691c.1066 0 .2131.2134.2131.32v14.1867c0 .2133-.2131.32-.3197.32h-5.4345c-.2131 0-.3197-.2133-.3197-.32l-.0007-13.44-4.0486 13.44c0 .1867-.1631.2917-.2753.315l-.0443.005h-4.4755c-.1066 0-.3197-.2133-.3197-.32l-.8525-2.88-.959-3.0933-1.9181 5.9733c0 .2133-.2131.32-.3197.32h-4.4755c-.1066 0-.3197-.2133-.3197-.32l-4.0492-13.44v3.4133c0 .2134-.2132.32-.3197.32h-3.0903v3.6267c0 1.0667.5328 1.4933 1.4919 1.4933.4262 0 .959-.1066 1.4918-.32.1066-.1066.3197 0 .3197.2134v4.2666c-.959.5334-2.3443.8534-3.8361.8534-3.5165 0-5.4346-1.6-5.4346-5.12v-5.0134h-1.3853c-.2131 0-.3196-.2133-.3196-.32v-4.0533c0-.2133.2131-.32.3196-.32h1.3853v-2.88c0-.21333.1066-.32.3197-.32zm54.9848 4.47997c4.6885 0 8.0985 3.52 8.0985 7.5734 0 4.0533-3.41 7.5733-8.2051 7.5733-4.6886 0-8.0985-3.52-8.0985-7.5733 0-4.0534 3.4099-7.5734 8.2051-7.5734zm-16.1971-4.47997c.2131 0 .3197.10667.3197.21334v18.98663c0 .2134-.2132.32-.3197.32h-5.4346c-.2131 0-.3196-.2133-.3196-.32v-18.87997c0-.21333.2131-.32.3196-.32zm7.1395 4.79997c.2131 0 .3197.2134.3197.32v13.9734c0 .2133-.2132.32-.3197.32h-5.4346c-.2131 0-.3196-.2134-.3196-.32v-13.9734c0-.2133.2131-.32.3196-.32zm-77.0427 5.5467c1.8116 0 3.3034 1.4933 3.3034 3.3067 0 1.8133-1.4918 3.3066-3.3034 3.3066-1.8115 0-3.30331-1.4933-3.30331-3.3066 0-1.8134 1.49181-3.3067 3.30331-3.3067zm7.8855 0c1.8115 0 3.3033 1.4933 3.3033 3.3067 0 1.8133-1.4918 3.3066-3.3033 3.3066-1.8116 0-3.3034-1.4933-3.3034-3.3066 0-1.8134 1.4918-3.3067 3.3034-3.3067zm78.2148-.7467c-1.3853 0-2.3444 1.1734-2.3444 2.56 0 1.3867 1.0656 2.56 2.3444 2.56 1.3852 0 2.3445-1.1733 2.3445-2.56 0-1.4933-1.0658-2.6666-2.3445-2.56zm-78.2148-7.14663c1.8115 0 3.3033 1.49333 3.3033 3.30663 0 1.8134-1.4918 3.3067-3.3033 3.3067-1.8116 0-3.3034-1.4933-3.3034-3.3067 0-1.8133 1.4918-3.30663 3.3034-3.30663zm-7.8855 0c1.8116 0 3.3034 1.49333 3.3034 3.30663 0 1.8134-1.4918 3.3067-3.3034 3.3067-1.8115 0-3.30331-1.4933-3.30331-3.3067 0-1.8133 1.49181-3.30663 3.30331-3.30663zm62.8703-2.45334c.1065 0 .2131.10667.3196.21334v3.41333c0 .2133-.2131.32-.3196.32h-5.6477c-.2131 0-.3197-.2133-.3197-.32v-3.30667c0-.21333.2131-.32.3197-.32zm14.2789 0c.2132 0 .3197.10667.3197.21334v3.41333c0 .2133-.2131.32-.3197.32h-5.6476c-.2131 0-.3197-.2133-.3197-.32v-3.30667c0-.21333.2131-.32.3197-.32z" fill="#f22f46"/></g></g></svg>